<svg xmlns="http://www.w3.org/2000/svg" viewBox="0 0 800 400">
  <defs>
    <linearGradient id="bgGradient" x1="0%" y1="0%" x2="100%" y2="100%">
      <stop offset="0%" stop-color="#7b68ee" />
      <stop offset="100%" stop-color="#ff69b4" />
    </linearGradient>
    <linearGradient id="textGradient" x1="0%" y1="0%" x2="100%" y2="0%">
      <stop offset="0%" stop-color="#ffffff" />
      <stop offset="100%" stop-color="#f0f6fc" />
    </linearGradient>
  </defs>
  
  <!-- 背景 -->
  <rect width="800" height="400" rx="20" fill="url(#bgGradient)" />
  
  <!-- GitHub Octocat -->
  <g transform="translate(100, 100) scale(0.8)">
    <path d="M150,150 C200,100 250,100 300,150 C350,200 350,250 300,300 C250,350 200,350 150,300 C100,250 100,200 150,150 Z" fill="none" stroke="white" stroke-width="8" />
    <circle cx="220" cy="180" r="20" fill="white" />
    <circle cx="280" cy="180" r="20" fill="white" />
    <path d="M200,240 Q250,280 300,240" stroke="white" stroke-width="8" fill="none" />
  </g>
  
  <!-- Jekyll 标志 -->
  <g transform="translate(450, 100) scale(0.8)">
    <path d="M50,50 L150,150 L50,250 L150,350 L250,250 L150,150 L250,50 Z" fill="none" stroke="white" stroke-width="8" />
    <circle cx="150" cy="150" r="40" fill="rgba(255,255,255,0.2)" />
  </g>
  
  <!-- 文字 -->
  <text x="400" y="320" text-anchor="middle" fill="url(#textGradient)" font-family="Arial, sans-serif" font-size="48" font-weight="bold">
    Jekyll + GitHub Pages
  </text>
  
  <!-- 装饰元素 -->
  <circle cx="50" cy="50" r="20" fill="white" opacity="0.2" />
  <circle cx="750" cy="350" r="30" fill="white" opacity="0.1" />
  <circle cx="700" cy="80" r="15" fill="white" opacity="0.3" />
</svg>